<svg width="23" height="22" viewBox="0 0 23 22" fill="none" xmlns="http://www.w3.org/2000/svg">
<path d="M3.12728 14.3052C3.49801 14.6602 4.09891 14.6601 4.4695 14.305C4.84009 13.9498 4.84 13.3742 4.46928 13.0191L2.29143 10.9335L5.58362 7.77956C7.57084 5.87581 10.3919 5.10013 13.0916 5.64507C13.6045 5.74859 14.1079 5.43419 14.2159 4.94282C14.324 4.45145 13.9958 3.96921 13.4829 3.86568C10.1618 3.19536 6.68707 4.15073 4.24136 6.49372L0.277975 10.2907C-0.0927028 10.6458 -0.0926583 11.2216 0.278109 11.5766L3.12728 14.3052Z" fill="#B8B8B8"/>
<path d="M22.5014 10.2897L19.6522 7.56113C19.2815 7.20611 18.6806 7.20619 18.31 7.56135C17.9394 7.9165 17.9395 8.49217 18.3102 8.84719L20.4881 10.9328L17.1959 14.0868C15.2087 15.9906 12.3876 16.7662 9.68791 16.2213C9.175 16.1177 8.67161 16.4322 8.56355 16.9235C8.45549 17.4149 8.78368 17.8971 9.29659 18.0007C12.6177 18.671 16.0924 17.7156 18.5381 15.3726L22.5015 11.5757C22.8722 11.2205 22.8722 10.6447 22.5014 10.2897Z" fill="#B8B8B8"/>
<path d="M6.64453 10.9331C6.64453 11.4352 7.06944 11.8423 7.5936 11.8423C8.11777 11.8423 8.54268 11.4352 8.54268 10.9331C8.54268 9.42675 9.81758 8.20539 11.3899 8.20539C11.9141 8.20539 12.339 7.79832 12.339 7.29618C12.339 6.79403 11.9141 6.38696 11.3899 6.38696C8.76926 6.38692 6.64453 8.42241 6.64453 10.9331Z" fill="#B8B8B8"/>
<path d="M14.2368 10.9332C14.2368 12.4395 12.9619 13.6609 11.3895 13.6609C10.8653 13.6609 10.4404 14.0679 10.4404 14.5701C10.4404 15.0722 10.8653 15.4793 11.3895 15.4793C14.0102 15.4793 16.135 13.4438 16.135 10.9331C16.135 10.431 15.7101 10.0239 15.1859 10.0239C14.6617 10.0239 14.2368 10.431 14.2368 10.9332Z" fill="#B8B8B8"/>
<path d="M22.5001 0.288029C22.1295 -0.0670384 21.5285 -0.0670384 21.1579 0.288029L0.277975 20.291C-0.0926584 20.6461 -0.0926584 21.2218 0.277975 21.5769C0.648609 21.9319 1.24956 21.9319 1.62019 21.5769L22.5001 1.57388C22.8708 1.21881 22.8708 0.643097 22.5001 0.288029Z" fill="#B8B8B8"/>
</svg>
