<svg width="137" height="163" viewBox="0 0 137 163" fill="none" xmlns="http://www.w3.org/2000/svg">
<path d="M65.0469 0H38.4875C35.9347 0 33.8652 2.07452 33.8652 4.63357V157.434C33.8652 159.993 35.9347 162.067 38.4875 162.067H65.0469C67.5998 162.067 69.6692 159.993 69.6692 157.434V4.63357C69.6692 2.07452 67.5998 0 65.0469 0Z" fill="white"/>
<path d="M98.0919 32.6504H71.5325C68.9796 32.6504 66.9102 34.7249 66.9102 37.284V157.438C66.9102 159.997 68.9796 162.071 71.5325 162.071H98.0919C100.645 162.071 102.714 159.997 102.714 157.438V37.284C102.714 34.7249 100.645 32.6504 98.0919 32.6504Z" fill="white"/>
<path d="M132.068 64.1755H105.509C102.956 64.1755 100.887 66.2501 100.887 68.8091V157.434C100.887 159.993 102.956 162.067 105.509 162.067H132.068C134.621 162.067 136.691 159.993 136.691 157.434V68.8091C136.691 66.2501 134.621 64.1755 132.068 64.1755Z" fill="white"/>
<path d="M31.1817 99.999H4.62231C2.06948 99.999 0 102.074 0 104.633V157.434C0 159.993 2.06948 162.067 4.62231 162.067H31.1817C33.7345 162.067 35.804 159.993 35.804 157.434V104.633C35.804 102.074 33.7345 99.999 31.1817 99.999Z" fill="white"/>
<path d="M104.721 124.212V74.4604C104.721 73.2601 105.196 72.1089 106.043 71.2602C106.89 70.4114 108.038 69.9346 109.236 69.9346H127.279C128.476 69.9346 129.625 70.4114 130.471 71.2602C131.318 72.1089 131.794 73.2601 131.794 74.4604V97.0735C131.794 104.271 128.941 111.174 123.864 116.264C118.787 121.353 111.901 124.212 104.721 124.212Z" fill="#83C8B8"/>
<path d="M93.9592 156.54H75.669C74.5075 156.54 73.3936 156.077 72.5723 155.254C71.751 154.431 71.2896 153.314 71.2896 152.15V97.4727C71.2896 90.275 74.1419 83.3721 79.219 78.2826C84.2962 73.193 91.1823 70.3337 98.3625 70.3337V152.15C98.3625 152.728 98.2485 153.301 98.0269 153.835C97.8053 154.369 97.4806 154.854 97.0714 155.262C96.6622 155.67 96.1766 155.993 95.6425 156.212C95.1084 156.432 94.5363 156.543 93.9592 156.54Z" fill="#83C8B8"/>
<path d="M60.6751 156.54H42.8667C41.6383 156.54 40.4601 156.051 39.5912 155.18C38.7222 154.31 38.2335 153.13 38.2324 151.898V10.2169C38.2324 9.0113 38.7102 7.85507 39.5606 7.00257C40.411 6.15007 41.5645 5.67114 42.7671 5.67114H60.7747C61.9766 5.6722 63.129 6.15159 63.9786 7.00398C64.8282 7.85636 65.3054 9.01199 65.3054 10.2169V151.898C65.3054 153.129 64.8176 154.31 63.9492 155.18C63.0809 156.051 61.9031 156.54 60.6751 156.54Z" fill="#83C8B8"/>
<path d="M4.78955 132.482C6.52541 129.425 9.33622 116.518 31.6077 118.513L31.8625 106.445C31.8625 105.323 29.8918 104.413 27.4592 104.413H9.19289C6.7603 104.413 4.78955 105.323 4.78955 106.445V132.482Z" fill="#83C8B8"/>
<path d="M131.794 111.601C131.965 111.944 128.047 128.211 104.721 128.411V151.994C104.721 152.591 104.838 153.183 105.066 153.734C105.294 154.286 105.629 154.788 106.05 155.21C106.472 155.632 106.972 155.967 107.523 156.195C108.073 156.423 108.664 156.54 109.259 156.54H127.259C128.462 156.54 129.615 156.061 130.465 155.208C131.316 154.356 131.794 153.2 131.794 151.994V111.601Z" fill="#83C8B8"/>
<path d="M31.8628 146.163V142.651C31.8628 141.693 31.2138 140.975 30.5649 140.975H17.7012C18.7045 138.66 20.2971 137.782 23.072 137.782H30.5649C31.2138 137.782 31.8628 136.904 31.8628 136.026V124.213C31.8628 123.375 31.2457 122.616 30.6286 122.616H24.0594C13.1864 122.616 6.02004 132.43 4.85352 146.163H31.8628Z" fill="#83C8B8"/>
<path d="M4.85352 145.632V156.54H27.3281C27.9244 156.539 28.5148 156.421 29.0656 156.191C29.6163 155.962 30.1165 155.626 30.5377 155.203C30.9588 154.78 31.2926 154.277 31.52 153.725C31.7473 153.172 31.8638 152.58 31.8628 151.982V145.632C31.8628 145.35 31.7508 145.079 31.5514 144.879C31.3521 144.679 31.0817 144.567 30.7998 144.567H5.91653C5.6346 144.567 5.36422 144.679 5.16487 144.879C4.96551 145.079 4.85352 145.35 4.85352 145.632Z" fill="#83C8B8"/>
<path d="M104.721 124.212V74.4604C104.721 73.2601 105.196 72.1089 106.043 71.2602C106.89 70.4114 108.038 69.9346 109.236 69.9346H127.279C128.476 69.9346 129.625 70.4114 130.471 71.2602C131.318 72.1089 131.794 73.2601 131.794 74.4604V97.0735C131.794 104.271 128.941 111.174 123.864 116.264C118.787 121.353 111.901 124.212 104.721 124.212Z" fill="url(#paint0_linear_388_2595)"/>
<path d="M93.9592 156.54H75.669C74.5075 156.54 73.3936 156.077 72.5723 155.254C71.751 154.431 71.2896 153.314 71.2896 152.15V97.4727C71.2896 90.275 74.1419 83.3721 79.219 78.2826C84.2962 73.193 91.1823 70.3337 98.3625 70.3337V152.15C98.3625 152.728 98.2485 153.301 98.0269 153.835C97.8053 154.369 97.4806 154.854 97.0714 155.262C96.6622 155.67 96.1766 155.993 95.6425 156.212C95.1084 156.432 94.5363 156.543 93.9592 156.54Z" fill="url(#paint1_linear_388_2595)"/>
<path d="M60.6751 156.54H42.8667C41.6383 156.54 40.4601 156.051 39.5912 155.18C38.7222 154.31 38.2335 153.13 38.2324 151.898V10.2169C38.2324 9.0113 38.7102 7.85507 39.5606 7.00257C40.411 6.15007 41.5645 5.67114 42.7671 5.67114H60.7747C61.9766 5.6722 63.129 6.15159 63.9786 7.00398C64.8282 7.85636 65.3054 9.01199 65.3054 10.2169V151.898C65.3054 153.129 64.8176 154.31 63.9492 155.18C63.0809 156.051 61.9031 156.54 60.6751 156.54Z" fill="url(#paint2_linear_388_2595)"/>
<path d="M71.2774 82.5463C70.955 82.259 74.8606 65.9317 98.3504 65.7361V42.0215C98.3504 40.8508 97.8865 39.7281 97.0607 38.9003C96.2349 38.0725 95.1149 37.6074 93.9471 37.6074H75.6808C74.5129 37.6074 73.3929 38.0725 72.5672 38.9003C71.7414 39.7281 71.2774 40.8508 71.2774 42.0215V82.5463Z" fill="url(#paint3_linear_388_2595)"/>
<path d="M4.78955 132.482C6.52541 129.425 9.33622 116.518 31.6077 118.513L31.8625 106.445C31.8625 105.323 29.8918 104.413 27.4592 104.413H9.19289C6.7603 104.413 4.78955 105.323 4.78955 106.445V132.482Z" fill="url(#paint4_linear_388_2595)"/>
<path d="M131.794 111.601C131.965 111.944 128.047 128.211 104.721 128.411V151.994C104.721 152.591 104.838 153.183 105.066 153.734C105.294 154.286 105.629 154.788 106.05 155.21C106.472 155.632 106.972 155.967 107.523 156.195C108.073 156.423 108.664 156.54 109.259 156.54H127.259C128.462 156.54 129.615 156.061 130.465 155.208C131.316 154.356 131.794 153.2 131.794 151.994V111.601Z" fill="url(#paint5_linear_388_2595)"/>
<path d="M31.8628 146.163V142.651C31.8628 141.693 31.2138 140.975 30.5649 140.975H17.7012C18.7045 138.66 20.2971 137.782 23.072 137.782H30.5649C31.2138 137.782 31.8628 136.904 31.8628 136.026V124.213C31.8628 123.375 31.2457 122.616 30.6286 122.616H24.0594C13.1864 122.616 6.02004 132.43 4.85352 146.163H31.8628Z" fill="url(#paint6_linear_388_2595)"/>
<path d="M4.85352 145.632V156.54H27.3281C27.9244 156.539 28.5148 156.421 29.0656 156.191C29.6163 155.962 30.1165 155.626 30.5377 155.203C30.9588 154.78 31.2926 154.277 31.52 153.725C31.7473 153.172 31.8638 152.58 31.8628 151.982V145.632C31.8628 145.35 31.7508 145.079 31.5514 144.879C31.3521 144.679 31.0817 144.567 30.7998 144.567H5.91653C5.6346 144.567 5.36422 144.679 5.16487 144.879C4.96551 145.079 4.85352 145.35 4.85352 145.632Z" fill="url(#paint7_linear_388_2595)"/>
<defs>
<linearGradient id="paint0_linear_388_2595" x1="14.8663" y1="165.232" x2="140.749" y2="15.0003" gradientUnits="userSpaceOnUse">
<stop stop-color="#9BD4D7"/>
<stop offset="1" stop-color="#8186C1"/>
</linearGradient>
<linearGradient id="paint1_linear_388_2595" x1="14.8663" y1="165.232" x2="140.749" y2="15.0004" gradientUnits="userSpaceOnUse">
<stop stop-color="#9BD4D7"/>
<stop offset="1" stop-color="#8186C1"/>
</linearGradient>
<linearGradient id="paint2_linear_388_2595" x1="14.8661" y1="165.232" x2="140.749" y2="15.0003" gradientUnits="userSpaceOnUse">
<stop stop-color="#9BD4D7"/>
<stop offset="1" stop-color="#8186C1"/>
</linearGradient>
<linearGradient id="paint3_linear_388_2595" x1="14.8661" y1="165.232" x2="140.749" y2="15.0005" gradientUnits="userSpaceOnUse">
<stop stop-color="#9BD4D7"/>
<stop offset="1" stop-color="#8186C1"/>
</linearGradient>
<linearGradient id="paint4_linear_388_2595" x1="14.8663" y1="165.232" x2="140.749" y2="15.0004" gradientUnits="userSpaceOnUse">
<stop stop-color="#9BD4D7"/>
<stop offset="1" stop-color="#8186C1"/>
</linearGradient>
<linearGradient id="paint5_linear_388_2595" x1="14.8663" y1="165.232" x2="140.749" y2="15.0004" gradientUnits="userSpaceOnUse">
<stop stop-color="#9BD4D7"/>
<stop offset="1" stop-color="#8186C1"/>
</linearGradient>
<linearGradient id="paint6_linear_388_2595" x1="14.8665" y1="165.232" x2="140.749" y2="15.0005" gradientUnits="userSpaceOnUse">
<stop stop-color="#9BD4D7"/>
<stop offset="1" stop-color="#8186C1"/>
</linearGradient>
<linearGradient id="paint7_linear_388_2595" x1="14.8665" y1="165.232" x2="140.749" y2="15.0004" gradientUnits="userSpaceOnUse">
<stop stop-color="#9BD4D7"/>
<stop offset="1" stop-color="#8186C1"/>
</linearGradient>
</defs>
</svg>
