<svg width="67" height="79" viewBox="0 0 67 79" fill="none" xmlns="http://www.w3.org/2000/svg">
<path d="M31.9319 0H19.0546C17.8169 0 16.8135 1.00583 16.8135 2.24658V76.3315C16.8135 77.5723 17.8169 78.5781 19.0546 78.5781H31.9319C33.1696 78.5781 34.173 77.5723 34.173 76.3315V2.24658C34.173 1.00583 33.1696 0 31.9319 0Z" fill="white"/>
<path d="M47.9536 15.8306H35.0763C33.8386 15.8306 32.8352 16.8364 32.8352 18.0772V76.3335C32.8352 77.5742 33.8386 78.5801 35.0763 78.5801H47.9536C49.1913 78.5801 50.1947 77.5742 50.1947 76.3335V18.0772C50.1947 16.8364 49.1913 15.8306 47.9536 15.8306Z" fill="white"/>
<path d="M64.427 31.1155H51.5497C50.312 31.1155 49.3086 32.1213 49.3086 33.3621V76.3316C49.3086 77.5723 50.312 78.5781 51.5497 78.5781H64.427C65.6647 78.5781 66.6681 77.5723 66.6681 76.3316V33.3621C66.6681 32.1213 65.6647 31.1155 64.427 31.1155Z" fill="white"/>
<path d="M15.5124 48.4844H2.63516C1.39743 48.4844 0.394043 49.4902 0.394043 50.731V76.3315C0.394043 77.5723 1.39743 78.5781 2.63516 78.5781H15.5124C16.7502 78.5781 17.7536 77.5723 17.7536 76.3315V50.731C17.7536 49.4902 16.7502 48.4844 15.5124 48.4844Z" fill="white"/>
<path d="M51.1677 60.2243V36.102C51.1677 35.5201 51.3984 34.9619 51.8089 34.5504C52.2194 34.1389 52.7762 33.9077 53.3567 33.9077H62.105C62.6856 33.9077 63.2424 34.1389 63.6529 34.5504C64.0634 34.9619 64.294 35.5201 64.294 36.102V47.066C64.294 50.5558 62.9111 53.9026 60.4494 56.3703C57.9878 58.8379 54.649 60.2243 51.1677 60.2243Z" fill="#83C8B8"/>
<path d="M45.9501 75.8982H37.0821C36.519 75.8982 35.9789 75.6739 35.5807 75.2748C35.1825 74.8756 34.9587 74.3342 34.9587 73.7696V47.2596C34.9587 43.7698 36.3417 40.4229 38.8033 37.9553C41.265 35.4876 44.6037 34.1013 48.085 34.1013V73.7696C48.085 74.0501 48.0297 74.3279 47.9223 74.5869C47.8149 74.8459 47.6574 75.0811 47.459 75.2789C47.2606 75.4767 47.0252 75.6332 46.7662 75.7395C46.5073 75.8458 46.2299 75.8997 45.9501 75.8982Z" fill="#83C8B8"/>
<path d="M29.8122 75.8981H21.1778C20.5822 75.8981 20.011 75.6611 19.5897 75.2391C19.1684 74.8171 18.9314 74.2447 18.9309 73.6477V4.95377C18.9309 4.36923 19.1626 3.80863 19.5749 3.3953C19.9872 2.98196 20.5464 2.74976 21.1296 2.74976H29.8605C30.4433 2.75027 31.002 2.9827 31.4139 3.39598C31.8258 3.80926 32.0572 4.36956 32.0572 4.95377V73.6477C32.0572 74.2446 31.8207 74.817 31.3997 75.239C30.9786 75.661 30.4076 75.8981 29.8122 75.8981Z" fill="#83C8B8"/>
<path d="M34.9529 40.0224C34.7965 39.8831 36.6902 31.9669 48.0792 31.872V20.374C48.0792 19.8064 47.8543 19.2621 47.4539 18.8607C47.0535 18.4594 46.5105 18.2339 45.9442 18.2339H37.0879C36.5216 18.2339 35.9786 18.4594 35.5782 18.8607C35.1778 19.2621 34.9529 19.8064 34.9529 20.374V40.0224Z" fill="#83C8B8"/>
<path d="M2.71631 64.2336C3.55794 62.7514 4.92075 56.4935 15.7191 57.461L15.8426 51.6094C15.8426 51.0657 14.8871 50.6245 13.7076 50.6245H4.85126C3.67182 50.6245 2.71631 51.0657 2.71631 51.6094V64.2336Z" fill="#83C8B8"/>
<path d="M64.294 54.1094C64.377 54.2758 62.4776 62.163 51.1677 62.2598V73.6939C51.1677 73.9835 51.2247 74.2703 51.3353 74.5378C51.4459 74.8053 51.608 75.0484 51.8124 75.2531C52.0167 75.4578 52.2594 75.6201 52.5263 75.7307C52.7933 75.8414 53.0794 75.8982 53.3683 75.8979H62.0954C62.6785 75.8979 63.2377 75.6657 63.65 75.2524C64.0624 74.8391 64.294 74.2785 64.294 73.6939V54.1094Z" fill="#83C8B8"/>
<path d="M15.8425 70.8669V69.1641C15.8425 68.6997 15.5278 68.3514 15.2132 68.3514H8.97626C9.46271 67.2291 10.2348 66.8033 11.5803 66.8033H15.2132C15.5278 66.8033 15.8425 66.3776 15.8425 65.9519V60.2242C15.8425 59.8179 15.5433 59.4502 15.2441 59.4502H12.059C6.78726 59.4502 3.31266 64.2085 2.74707 70.8669H15.8425Z" fill="#83C8B8"/>
<path d="M2.74707 70.6097V75.8981H13.6438C13.933 75.8979 14.2192 75.8405 14.4862 75.7293C14.7533 75.6181 14.9958 75.4552 15.2 75.25C15.4042 75.0447 15.566 74.8012 15.6763 74.5332C15.7865 74.2653 15.843 73.9782 15.8425 73.6883V70.6097C15.8425 70.4726 15.7882 70.3412 15.6915 70.2443C15.5949 70.1475 15.4638 70.093 15.3271 70.093H3.26247C3.12578 70.093 2.99468 70.1475 2.89803 70.2443C2.80137 70.3412 2.74707 70.4726 2.74707 70.6097Z" fill="#83C8B8"/>
<path d="M51.1677 60.2243V36.102C51.1677 35.5201 51.3984 34.9619 51.8089 34.5504C52.2194 34.1389 52.7762 33.9077 53.3567 33.9077H62.105C62.6856 33.9077 63.2424 34.1389 63.6529 34.5504C64.0634 34.9619 64.294 35.5201 64.294 36.102V47.066C64.294 50.5558 62.9111 53.9026 60.4494 56.3703C57.9878 58.8379 54.649 60.2243 51.1677 60.2243Z" fill="url(#paint0_linear_388_2548)"/>
<path d="M45.9501 75.8982H37.0821C36.519 75.8982 35.9789 75.6739 35.5807 75.2748C35.1825 74.8756 34.9587 74.3342 34.9587 73.7696V47.2596C34.9587 43.7698 36.3417 40.4229 38.8033 37.9553C41.265 35.4876 44.6037 34.1013 48.085 34.1013V73.7696C48.085 74.0501 48.0297 74.3279 47.9223 74.5869C47.8149 74.8459 47.6574 75.0811 47.459 75.2789C47.2606 75.4767 47.0252 75.6332 46.7662 75.7395C46.5073 75.8458 46.2299 75.8997 45.9501 75.8982Z" fill="url(#paint1_linear_388_2548)"/>
<path d="M29.8122 75.8981H21.1778C20.5822 75.8981 20.011 75.6611 19.5897 75.2391C19.1684 74.8171 18.9314 74.2447 18.9309 73.6477V4.95377C18.9309 4.36923 19.1626 3.80863 19.5749 3.3953C19.9872 2.98196 20.5464 2.74976 21.1296 2.74976H29.8605C30.4433 2.75027 31.002 2.9827 31.4139 3.39598C31.8258 3.80926 32.0572 4.36956 32.0572 4.95377V73.6477C32.0572 74.2446 31.8207 74.817 31.3997 75.239C30.9786 75.661 30.4076 75.8981 29.8122 75.8981Z" fill="url(#paint2_linear_388_2548)"/>
<path d="M34.9529 40.0224C34.7965 39.8831 36.6902 31.9669 48.0792 31.872V20.374C48.0792 19.8064 47.8543 19.2621 47.4539 18.8607C47.0535 18.4594 46.5105 18.2339 45.9442 18.2339H37.0879C36.5216 18.2339 35.9786 18.4594 35.5782 18.8607C35.1778 19.2621 34.9529 19.8064 34.9529 20.374V40.0224Z" fill="url(#paint3_linear_388_2548)"/>
<path d="M2.71631 64.2336C3.55794 62.7514 4.92075 56.4935 15.7191 57.461L15.8426 51.6094C15.8426 51.0657 14.8871 50.6245 13.7076 50.6245H4.85126C3.67182 50.6245 2.71631 51.0657 2.71631 51.6094V64.2336Z" fill="url(#paint4_linear_388_2548)"/>
<path d="M64.294 54.1094C64.377 54.2758 62.4776 62.163 51.1677 62.2598V73.6939C51.1677 73.9835 51.2247 74.2703 51.3353 74.5378C51.4459 74.8053 51.608 75.0484 51.8124 75.2531C52.0167 75.4578 52.2594 75.6201 52.5263 75.7307C52.7933 75.8414 53.0794 75.8982 53.3683 75.8979H62.0954C62.6785 75.8979 63.2377 75.6657 63.65 75.2524C64.0624 74.8391 64.294 74.2785 64.294 73.6939V54.1094Z" fill="url(#paint5_linear_388_2548)"/>
<path d="M15.8425 70.8669V69.1641C15.8425 68.6997 15.5278 68.3514 15.2132 68.3514H8.97626C9.46271 67.2291 10.2348 66.8033 11.5803 66.8033H15.2132C15.5278 66.8033 15.8425 66.3776 15.8425 65.9519V60.2242C15.8425 59.8179 15.5433 59.4502 15.2441 59.4502H12.059C6.78726 59.4502 3.31266 64.2085 2.74707 70.8669H15.8425Z" fill="url(#paint6_linear_388_2548)"/>
<path d="M2.74707 70.6097V75.8981H13.6438C13.933 75.8979 14.2192 75.8405 14.4862 75.7293C14.7533 75.6181 14.9958 75.4552 15.2 75.25C15.4042 75.0447 15.566 74.8012 15.6763 74.5332C15.7865 74.2653 15.843 73.9782 15.8425 73.6883V70.6097C15.8425 70.4726 15.7882 70.3412 15.6915 70.2443C15.5949 70.1475 15.4638 70.093 15.3271 70.093H3.26247C3.12578 70.093 2.99468 70.1475 2.89803 70.2443C2.80137 70.3412 2.74707 70.4726 2.74707 70.6097Z" fill="url(#paint7_linear_388_2548)"/>
<defs>
<linearGradient id="paint0_linear_388_2548" x1="7.60195" y1="80.1126" x2="68.6361" y2="7.27294" gradientUnits="userSpaceOnUse">
<stop stop-color="#9BD4D7"/>
<stop offset="1" stop-color="#8186C1"/>
</linearGradient>
<linearGradient id="paint1_linear_388_2548" x1="7.60201" y1="80.1127" x2="68.6361" y2="7.27303" gradientUnits="userSpaceOnUse">
<stop stop-color="#9BD4D7"/>
<stop offset="1" stop-color="#8186C1"/>
</linearGradient>
<linearGradient id="paint2_linear_388_2548" x1="7.60176" y1="80.1127" x2="68.6359" y2="7.273" gradientUnits="userSpaceOnUse">
<stop stop-color="#9BD4D7"/>
<stop offset="1" stop-color="#8186C1"/>
</linearGradient>
<linearGradient id="paint3_linear_388_2548" x1="7.60196" y1="80.1126" x2="68.6361" y2="7.27294" gradientUnits="userSpaceOnUse">
<stop stop-color="#9BD4D7"/>
<stop offset="1" stop-color="#8186C1"/>
</linearGradient>
<linearGradient id="paint4_linear_388_2548" x1="7.60199" y1="80.1126" x2="68.6361" y2="7.27292" gradientUnits="userSpaceOnUse">
<stop stop-color="#9BD4D7"/>
<stop offset="1" stop-color="#8186C1"/>
</linearGradient>
<linearGradient id="paint5_linear_388_2548" x1="7.60196" y1="80.1124" x2="68.6361" y2="7.27279" gradientUnits="userSpaceOnUse">
<stop stop-color="#9BD4D7"/>
<stop offset="0.0001" stop-color="#9BD4D7"/>
<stop offset="1" stop-color="#8186C1"/>
</linearGradient>
<linearGradient id="paint6_linear_388_2548" x1="7.60187" y1="80.1126" x2="68.636" y2="7.27289" gradientUnits="userSpaceOnUse">
<stop stop-color="#9BD4D7"/>
<stop offset="1" stop-color="#8186C1"/>
</linearGradient>
<linearGradient id="paint7_linear_388_2548" x1="7.60187" y1="80.1127" x2="68.636" y2="7.273" gradientUnits="userSpaceOnUse">
<stop stop-color="#9BD4D7"/>
<stop offset="1" stop-color="#8186C1"/>
</linearGradient>
</defs>
</svg>
