<svg width="67" height="79" viewBox="0 0 67 79" fill="none" xmlns="http://www.w3.org/2000/svg">
<path d="M31.5378 0H18.6606C17.4228 0 16.4194 1.00583 16.4194 2.24658V76.3315C16.4194 77.5723 17.4228 78.5781 18.6606 78.5781H31.5378C32.7756 78.5781 33.779 77.5723 33.779 76.3315V2.24658C33.779 1.00583 32.7756 0 31.5378 0Z" fill="white"/>
<path d="M47.5596 15.8306H34.6823C33.4445 15.8306 32.4412 16.8364 32.4412 18.0772V76.3335C32.4412 77.5742 33.4445 78.5801 34.6823 78.5801H47.5596C48.7973 78.5801 49.8007 77.5742 49.8007 76.3335V18.0772C49.8007 16.8364 48.7973 15.8306 47.5596 15.8306Z" fill="white"/>
<path d="M64.033 31.1155H51.1557C49.9179 31.1155 48.9146 32.1213 48.9146 33.3621V76.3316C48.9146 77.5723 49.9179 78.5781 51.1557 78.5781H64.033C65.2707 78.5781 66.2741 77.5723 66.2741 76.3316V33.3621C66.2741 32.1213 65.2707 31.1155 64.033 31.1155Z" fill="white"/>
<path d="M15.1184 48.4844H2.24112C1.00338 48.4844 0 49.4902 0 50.731V76.3315C0 77.5723 1.00338 78.5781 2.24112 78.5781H15.1184C16.3561 78.5781 17.3595 77.5723 17.3595 76.3315V50.731C17.3595 49.4902 16.3561 48.4844 15.1184 48.4844Z" fill="white"/>
<path d="M50.7734 60.2243V36.102C50.7734 35.5201 51.0041 34.9619 51.4146 34.5504C51.8251 34.1389 52.3819 33.9077 52.9624 33.9077H61.7107C62.2913 33.9077 62.8481 34.1389 63.2586 34.5504C63.6691 34.9619 63.8997 35.5201 63.8997 36.102V47.066C63.8997 50.5558 62.5168 53.9026 60.0551 56.3703C57.5935 58.8379 54.2547 60.2243 50.7734 60.2243Z" fill="#83C8B8"/>
<path d="M45.556 75.8981H36.6881C36.1249 75.8981 35.5848 75.6738 35.1866 75.2746C34.7884 74.8755 34.5647 74.334 34.5647 73.7695V47.2595C34.5647 43.7697 35.9476 40.4228 38.4093 37.9552C40.871 35.4875 44.2097 34.1012 47.691 34.1012V73.7695C47.691 74.05 47.6357 74.3278 47.5283 74.5868C47.4208 74.8458 47.2634 75.0809 47.065 75.2787C46.8666 75.4765 46.6311 75.6331 46.3722 75.7394C46.1132 75.8457 45.8359 75.8996 45.556 75.8981Z" fill="#83C8B8"/>
<path d="M29.4182 75.898H20.7838C20.1882 75.898 19.617 75.661 19.1957 75.239C18.7743 74.817 18.5374 74.2446 18.5369 73.6476V4.95364C18.5369 4.3691 18.7685 3.80851 19.1808 3.39517C19.5932 2.98184 20.1524 2.74963 20.7355 2.74963H29.4664C30.0492 2.75015 30.608 2.98258 31.0199 3.39586C31.4318 3.80913 31.6632 4.36944 31.6632 4.95364V73.6476C31.6632 74.2444 31.4266 74.8168 31.0056 75.2389C30.5846 75.6609 30.0136 75.898 29.4182 75.898Z" fill="#83C8B8"/>
<path d="M34.5589 40.0224C34.4025 39.8831 36.2962 31.9669 47.6852 31.872V20.374C47.6852 19.8064 47.4602 19.2621 47.0598 18.8607C46.6595 18.4594 46.1164 18.2339 45.5502 18.2339H36.6938C36.1276 18.2339 35.5846 18.4594 35.1842 18.8607C34.7838 19.2621 34.5589 19.8064 34.5589 20.374V40.0224Z" fill="#83C8B8"/>
<path d="M2.32227 64.2336C3.16389 62.7514 4.52671 56.4935 15.325 57.461L15.4486 51.6094C15.4486 51.0657 14.493 50.6245 13.3136 50.6245H4.45722C3.27778 50.6245 2.32227 51.0657 2.32227 51.6094V64.2336Z" fill="#83C8B8"/>
<path d="M63.8997 54.1095C63.9827 54.2759 62.0833 62.1631 50.7734 62.2599V73.694C50.7734 73.9836 50.8304 74.2704 50.941 74.5379C51.0516 74.8055 51.2137 75.0485 51.4181 75.2532C51.6225 75.4579 51.8651 75.6202 52.132 75.7308C52.399 75.8415 52.6851 75.8983 52.974 75.898H61.7011C62.2842 75.898 62.8434 75.6658 63.2558 75.2525C63.6681 74.8392 63.8997 74.2786 63.8997 73.694V54.1095Z" fill="#83C8B8"/>
<path d="M15.4484 70.8671V69.1642C15.4484 68.6998 15.1338 68.3515 14.8191 68.3515H8.58222C9.06867 67.2292 9.8408 66.8035 11.1862 66.8035H14.8191C15.1338 66.8035 15.4484 66.3778 15.4484 65.952V60.2243C15.4484 59.818 15.1492 59.4503 14.85 59.4503H11.665C6.39322 59.4503 2.91862 64.2086 2.35303 70.8671H15.4484Z" fill="#83C8B8"/>
<path d="M2.35303 70.6095V75.898H13.2498C13.5389 75.8978 13.8252 75.8404 14.0922 75.7292C14.3592 75.618 14.6018 75.4551 14.8059 75.2499C15.0101 75.0446 15.172 74.8011 15.2822 74.5331C15.3925 74.2652 15.4489 73.9781 15.4484 73.6882V70.6095C15.4484 70.4725 15.3941 70.3411 15.2975 70.2442C15.2008 70.1473 15.0697 70.0929 14.933 70.0929H2.86843C2.73173 70.0929 2.60064 70.1473 2.50399 70.2442C2.40733 70.3411 2.35303 70.4725 2.35303 70.6095Z" fill="#83C8B8"/>
<path d="M50.7734 60.2243V36.102C50.7734 35.5201 51.0041 34.9619 51.4146 34.5504C51.8251 34.1389 52.3819 33.9077 52.9624 33.9077H61.7107C62.2913 33.9077 62.8481 34.1389 63.2586 34.5504C63.6691 34.9619 63.8997 35.5201 63.8997 36.102V47.066C63.8997 50.5558 62.5168 53.9026 60.0551 56.3703C57.5935 58.8379 54.2547 60.2243 50.7734 60.2243Z" fill="url(#paint0_linear_388_2682)"/>
<path d="M45.556 75.8981H36.6881C36.1249 75.8981 35.5848 75.6738 35.1866 75.2746C34.7884 74.8755 34.5647 74.334 34.5647 73.7695V47.2595C34.5647 43.7697 35.9476 40.4228 38.4093 37.9552C40.871 35.4875 44.2097 34.1012 47.691 34.1012V73.7695C47.691 74.05 47.6357 74.3278 47.5283 74.5868C47.4208 74.8458 47.2634 75.0809 47.065 75.2787C46.8666 75.4765 46.6311 75.6331 46.3722 75.7394C46.1132 75.8457 45.8359 75.8996 45.556 75.8981Z" fill="url(#paint1_linear_388_2682)"/>
<path d="M29.4182 75.898H20.7838C20.1882 75.898 19.617 75.661 19.1957 75.239C18.7743 74.817 18.5374 74.2446 18.5369 73.6476V4.95364C18.5369 4.3691 18.7685 3.80851 19.1808 3.39517C19.5932 2.98184 20.1524 2.74963 20.7355 2.74963H29.4664C30.0492 2.75015 30.608 2.98258 31.0199 3.39586C31.4318 3.80913 31.6632 4.36944 31.6632 4.95364V73.6476C31.6632 74.2444 31.4266 74.8168 31.0056 75.2389C30.5846 75.6609 30.0136 75.898 29.4182 75.898Z" fill="url(#paint2_linear_388_2682)"/>
<path d="M34.5589 40.0224C34.4025 39.8831 36.2962 31.9669 47.6852 31.872V20.374C47.6852 19.8064 47.4602 19.2621 47.0598 18.8607C46.6595 18.4594 46.1164 18.2339 45.5502 18.2339H36.6938C36.1276 18.2339 35.5846 18.4594 35.1842 18.8607C34.7838 19.2621 34.5589 19.8064 34.5589 20.374V40.0224Z" fill="url(#paint3_linear_388_2682)"/>
<path d="M2.32227 64.2336C3.16389 62.7514 4.52671 56.4935 15.325 57.461L15.4486 51.6094C15.4486 51.0657 14.493 50.6245 13.3136 50.6245H4.45722C3.27778 50.6245 2.32227 51.0657 2.32227 51.6094V64.2336Z" fill="url(#paint4_linear_388_2682)"/>
<path d="M63.8997 54.1095C63.9827 54.2759 62.0833 62.1631 50.7734 62.2599V73.694C50.7734 73.9836 50.8304 74.2704 50.941 74.5379C51.0516 74.8055 51.2137 75.0485 51.4181 75.2532C51.6225 75.4579 51.8651 75.6202 52.132 75.7308C52.399 75.8415 52.6851 75.8983 52.974 75.898H61.7011C62.2842 75.898 62.8434 75.6658 63.2558 75.2525C63.6681 74.8392 63.8997 74.2786 63.8997 73.694V54.1095Z" fill="url(#paint5_linear_388_2682)"/>
<path d="M15.4484 70.8671V69.1642C15.4484 68.6998 15.1338 68.3515 14.8191 68.3515H8.58222C9.06867 67.2292 9.8408 66.8035 11.1862 66.8035H14.8191C15.1338 66.8035 15.4484 66.3778 15.4484 65.952V60.2243C15.4484 59.818 15.1492 59.4503 14.85 59.4503H11.665C6.39322 59.4503 2.91862 64.2086 2.35303 70.8671H15.4484Z" fill="url(#paint6_linear_388_2682)"/>
<path d="M2.35303 70.6095V75.898H13.2498C13.5389 75.8978 13.8252 75.8404 14.0922 75.7292C14.3592 75.618 14.6018 75.4551 14.8059 75.2499C15.0101 75.0446 15.172 74.8011 15.2822 74.5331C15.3925 74.2652 15.4489 73.9781 15.4484 73.6882V70.6095C15.4484 70.4725 15.3941 70.3411 15.2975 70.2442C15.2008 70.1473 15.0697 70.0929 14.933 70.0929H2.86843C2.73173 70.0929 2.60064 70.1473 2.50399 70.2442C2.40733 70.3411 2.35303 70.4725 2.35303 70.6095Z" fill="url(#paint7_linear_388_2682)"/>
<defs>
<linearGradient id="paint0_linear_388_2682" x1="7.20767" y1="80.1126" x2="68.2418" y2="7.27294" gradientUnits="userSpaceOnUse">
<stop stop-color="#9BD4D7"/>
<stop offset="1" stop-color="#8186C1"/>
</linearGradient>
<linearGradient id="paint1_linear_388_2682" x1="7.20796" y1="80.1126" x2="68.2421" y2="7.27291" gradientUnits="userSpaceOnUse">
<stop stop-color="#9BD4D7"/>
<stop offset="1" stop-color="#8186C1"/>
</linearGradient>
<linearGradient id="paint2_linear_388_2682" x1="7.20772" y1="80.1125" x2="68.2418" y2="7.27287" gradientUnits="userSpaceOnUse">
<stop stop-color="#9BD4D7"/>
<stop offset="1" stop-color="#8186C1"/>
</linearGradient>
<linearGradient id="paint3_linear_388_2682" x1="7.20792" y1="80.1126" x2="68.242" y2="7.27294" gradientUnits="userSpaceOnUse">
<stop stop-color="#9BD4D7"/>
<stop offset="1" stop-color="#8186C1"/>
</linearGradient>
<linearGradient id="paint4_linear_388_2682" x1="7.20795" y1="80.1126" x2="68.242" y2="7.27292" gradientUnits="userSpaceOnUse">
<stop stop-color="#9BD4D7"/>
<stop offset="1" stop-color="#8186C1"/>
</linearGradient>
<linearGradient id="paint5_linear_388_2682" x1="7.20767" y1="80.1126" x2="68.2418" y2="7.27291" gradientUnits="userSpaceOnUse">
<stop stop-color="#9BD4D7"/>
<stop offset="0.0001" stop-color="#9BD4D7"/>
<stop offset="1" stop-color="#8186C1"/>
</linearGradient>
<linearGradient id="paint6_linear_388_2682" x1="7.20782" y1="80.1127" x2="68.2419" y2="7.27301" gradientUnits="userSpaceOnUse">
<stop stop-color="#9BD4D7"/>
<stop offset="1" stop-color="#8186C1"/>
</linearGradient>
<linearGradient id="paint7_linear_388_2682" x1="7.20782" y1="80.1125" x2="68.2419" y2="7.27288" gradientUnits="userSpaceOnUse">
<stop stop-color="#9BD4D7"/>
<stop offset="1" stop-color="#8186C1"/>
</linearGradient>
</defs>
</svg>
